# xmcd
#
# Track frame offsets:
#	150
#	16893
#	31811
#	41803
#	67163
#	82030
#	94829
#	106924
#	120897
#	133458
#	146035
#	163222
#	177743
#	190340
#	196941
#	205082
#	228282
#	243111
#	260563
#	277310
#	291584
#	301218
#	314042
#	326556
#	336575
#	343775
#
# Disc length: 4784 seconds
#
# Revision: 0
# Processed by: cddbd v1.5.2PL0 Copyright (c) Steve Scherf et al.
# Submitted via: EZCDAudioConverter 1.3.4.1
#
DISCID=a012ae1a
DTITLE=Big Star - Keep An Eye On The Sky 2/4
DYEAR=2009
DGENRE=
TTITLE0=Big Star - There Was A Light [Demo]
TTITLE1=Big Star - Life Is White [Demo]
TTITLE2=Big Star - What's Going Ahn [Demo]
TTITLE3=Big Star - O My Soul
TTITLE4=Big Star - Life Is White
TTITLE5=Big Star - Way Out West
TTITLE6=Big Star - What's Going Ahn
TTITLE7=Big Star - You Get What You Deserve
TTITLE8=Big Star - Mod Lang [Alternate Mix]
TTITLE9=Big Star - Back Of A Car [Alternate Mix]
TTITLE10=Big Star - Daisy Glaze
TTITLE11=Big Star - She's A Mover
TTITLE12=Big Star - September Gurls
TTITLE13=Big Star - Morpha Too [Alternate Mix]
TTITLE14=Big Star - I'm In Love With A Girl
TTITLE15=Big Star - O My Soul [Alternate Version]
TTITLE16=Big Star - She's A Mover [Alternate Version]
TTITLE17=Big Star - Daisy Glaze [Rehearsal Version]
TTITLE18=Chris Bell - I Am The Cosmos
TTITLE19=Chris Bell - You And Your Sister
TTITLE20=Big Star - Blue Moon [Demo]
TTITLE21=Big Star - Femme Fatale [Demo]
TTITLE22=Big Star - Thank You Friends [Demo]
TTITLE23=Big Star - Nightime [Demo]
TTITLE24=Big Star - Take Care [Demo]
TTITLE25=Big Star - You Get What You Deserve [Demo]
EXTD=
EXTT0=
EXTT1=
EXTT2=
EXTT3=
EXTT4=
EXTT5=
EXTT6=
EXTT7=
EXTT8=
EXTT9=
EXTT10=
EXTT11=
EXTT12=
EXTT13=
EXTT14=
EXTT15=
EXTT16=
EXTT17=
EXTT18=
EXTT19=
EXTT20=
EXTT21=
EXTT22=
EXTT23=
EXTT24=
EXTT25=
PLAYORDER=
